<svg id="Group_2520" data-name="Group 2520" xmlns="http://www.w3.org/2000/svg" width="54" height="54" viewBox="0 0 54 54">
  <path id="Path_6127" data-name="Path 6127" d="M40.372,10H12.109A2.109,2.109,0,0,0,10,12.109V59.781a2.109,2.109,0,0,0,2.109,2.109H48.388A2.109,2.109,0,0,0,50.5,59.781V20.125Z" transform="translate(-8.945 -8.945)" fill="#fff"/>
  <path id="Path_6128" data-name="Path 6128" d="M300.084,20.127H308.1L297.975,10v8.016A2.109,2.109,0,0,0,300.084,20.127Z" transform="translate(-266.548 -8.947)" fill="#50cbf4"/>
  <rect id="Rectangle_618" data-name="Rectangle 618" width="6.75" height="9.452" transform="translate(13.289 43.492)" fill="#36d28f"/>
  <rect id="Rectangle_619" data-name="Rectangle 619" width="7" height="23" transform="translate(35 30)" fill="#72d8ff"/>
  <rect id="Rectangle_620" data-name="Rectangle 620" width="7" height="16" transform="translate(24 37)" fill="#36d28f"/>
  <rect id="Rectangle_621" data-name="Rectangle 621" width="6.75" height="29.874" transform="translate(46.195 23.071)" fill="#4dbaf6"/>
  <path id="Path_6129" data-name="Path 6129" d="M72.247,100.823h8.646a8.646,8.646,0,1,1-8.646-8.646v8.646Z" transform="translate(-56.893 -82.455)" fill="#36d28f"/>
  <path id="Path_6130" data-name="Path 6130" d="M145.576,64.729V76.27h11.541A11.541,11.541,0,0,0,145.576,64.729Z" transform="translate(-130.222 -57.902)" fill="#50cbf4"/>
  <path id="Path_6131" data-name="Path 6131" d="M52.945,22.016H46.2a1.055,1.055,0,0,0-1.055,1.055V28.4a1.055,1.055,0,1,0,2.109,0V24.126h4.641V51.891H47.25V36.308a1.055,1.055,0,0,0-2.109,0V51.891H43.031V30.059A1.055,1.055,0,0,0,41.977,29h-6.75a1.055,1.055,0,0,0-1.055,1.055V51.891H32.063V37.441a1.055,1.055,0,0,0-1.055-1.055h-6.75A1.055,1.055,0,0,0,23.2,37.441V51.891H21.094v-8.4a1.055,1.055,0,0,0-1.055-1.055h-6.75a1.055,1.055,0,0,0-1.055,1.055v8.4H3.164a1.056,1.056,0,0,1-1.055-1.055V3.164A1.056,1.056,0,0,1,3.164,2.109H30.372V9.071a3.168,3.168,0,0,0,3.164,3.164H40.5V25.207a1.055,1.055,0,0,0,2.109,0V11.18a1.055,1.055,0,0,0-.309-.746L32.173.309A1.055,1.055,0,0,0,31.427,0H3.164A3.168,3.168,0,0,0,0,3.164V50.836A3.168,3.168,0,0,0,3.164,54H52.945A1.055,1.055,0,0,0,54,52.945V23.071A1.055,1.055,0,0,0,52.945,22.016ZM32.482,9.071V3.6l6.524,6.524h-5.47A1.056,1.056,0,0,1,32.482,9.071ZM14.344,51.891V44.547h4.641v7.343Zm10.969,0V38.5h4.641V51.891Zm10.969,0V31.113h4.641V51.891Z" fill="#1d4d8b"/>
  <path id="Path_6132" data-name="Path 6132" d="M429.055,297a1.055,1.055,0,1,0-.746-.309A1.063,1.063,0,0,0,429.055,297Z" transform="translate(-382.859 -263.788)" fill="#1d4d8b"/>
  <path id="Path_6133" data-name="Path 6133" d="M63.3,54.729a1.055,1.055,0,0,0-1.055,1.055v1.9a9.7,9.7,0,1,0,10.7,10.7h1.9A1.055,1.055,0,0,0,75.9,67.325,12.61,12.61,0,0,0,63.3,54.729Zm0,20.187a7.591,7.591,0,0,1-1.055-15.109v7.518A1.055,1.055,0,0,0,63.3,68.379h7.518A7.6,7.6,0,0,1,63.3,74.916Zm1.055-8.646V56.891a10.506,10.506,0,0,1,9.379,9.379H64.357Z" transform="translate(-47.949 -48.957)" fill="#1d4d8b"/>
  <path id="Path_6134" data-name="Path 6134" d="M76.254,295.3A1.055,1.055,0,0,0,75.2,294.25H55.055a1.055,1.055,0,0,0,0,2.109H75.2A1.055,1.055,0,0,0,76.254,295.3Z" transform="translate(-48.305 -263.216)" fill="#1d4d8b"/>
  <path id="Path_6135" data-name="Path 6135" d="M55.055,342.5a1.055,1.055,0,0,0,0,2.109H61.8a1.055,1.055,0,0,0,0-2.109Z" transform="translate(-48.305 -306.377)" fill="#1d4d8b"/>
  <path id="Path_6136" data-name="Path 6136" d="M168.389,342.809a1.054,1.054,0,1,0,.746-.309A1.058,1.058,0,0,0,168.389,342.809Z" transform="translate(-150.353 -306.377)" fill="#1d4d8b"/>
</svg>
