<svg xmlns="http://www.w3.org/2000/svg" width="21.392" height="21.392" viewBox="0 0 21.392 21.392">
  <path id="solid_download" data-name="solid download" d="M9.025,0h3.343a1,1,0,0,1,1,1V8.022h3.664a.834.834,0,0,1,.589,1.425l-6.355,6.359a.809.809,0,0,1-1.141,0L3.764,9.447a.834.834,0,0,1,.589-1.425H8.022V1A1,1,0,0,1,9.025,0ZM21.392,15.71v4.68a1,1,0,0,1-1,1H1a1,1,0,0,1-1-1V15.71a1,1,0,0,1,1-1H7.132l2.047,2.047a2.141,2.141,0,0,0,3.033,0l2.047-2.047h6.129A1,1,0,0,1,21.392,15.71Zm-5.181,3.677a.836.836,0,1,0-.836.836A.838.838,0,0,0,16.211,19.387Zm2.674,0a.836.836,0,1,0-.836.836A.838.838,0,0,0,18.885,19.387Z" fill="#fff"/>
</svg>
