<svg xmlns="http://www.w3.org/2000/svg" width="32" height="32" viewBox="0 0 32 32">
  <path id="info" d="M1288,3016a16,16,0,1,1,16-16A16.018,16.018,0,0,1,1288,3016Zm0-29.9a13.9,13.9,0,1,0,13.9,13.9A13.917,13.917,0,0,0,1288,2986.1Zm1.928,22.367h-3.854a1.049,1.049,0,0,1,0-2.1h.878v-8.952h-.878a1.049,1.049,0,0,1,0-2.1H1288a1.049,1.049,0,0,1,1.049,1.049v10h.877a1.049,1.049,0,1,1,0,2.1Zm-2.223-14.388a1.4,1.4,0,1,1,1.4-1.4A1.4,1.4,0,0,1,1287.7,2994.077Z" transform="translate(-1272 -2983.999)" fill="#fff"/>
</svg>
