<svg xmlns="http://www.w3.org/2000/svg" width="18.424" height="18.414" viewBox="0 0 18.424 18.414">
  <path id="Path_1689" data-name="Path 1689" d="M17.214,16.345,13.1,12.114a7.12,7.12,0,0,0,1.914-4.846,7.4,7.4,0,0,0-7.5-7.274A7.4,7.4,0,0,0,.008,7.268a7.4,7.4,0,0,0,7.506,7.273,7.618,7.618,0,0,0,4.638-1.562l4.11,4.233ZM1.313,7.268a6.113,6.113,0,0,1,6.2-6.008,6.113,6.113,0,0,1,6.2,6.008,6.114,6.114,0,0,1-6.2,6.008A6.114,6.114,0,0,1,1.313,7.268Z" transform="translate(0.492 0.506)" fill="#888" stroke="#888" stroke-width="1" fill-rule="evenodd"/>
</svg>
